<?xml version="1.0" encoding="UTF-8"?>
<svg version="1.1" xmlns="http://www.w3.org/2000/svg" width="800" height="800">
<path d="M0 0 C0.72123047 0.26361328 1.44246094 0.52722656 2.18554688 0.79882812 C21.63668666 7.978296 39.51244408 18.50710731 56 31 C56.55768066 31.41862305 57.11536133 31.83724609 57.68994141 32.26855469 C63.74568474 36.83984533 63.74568474 36.83984533 66 39 C66 39.66 66 40.32 66 41 C66.59224365 41.26844727 67.1844873 41.53689453 67.79467773 41.81347656 C71.47555114 43.7938867 74.13856966 46.80099686 77.0625 49.75 C77.72717285 50.4188623 78.3918457 51.08772461 79.07666016 51.77685547 C88.97118026 61.89522271 97.19160839 73.21832668 105 85 C105.39010254 85.57878906 105.78020508 86.15757812 106.18212891 86.75390625 C131.92129628 125.1501511 142.73229041 169.70509512 148 215 C148.08808929 215.72299789 148.17617859 216.44599579 148.26693726 217.19090271 C149.05490512 224.18192136 149.17771914 231.12151185 149.203125 238.15234375 C149.20882507 239.40592178 149.21452515 240.65949982 149.22039795 241.95106506 C149.22981045 244.6027486 149.23672456 247.25432018 149.24023438 249.90600586 C149.2466947 253.86654223 149.28084241 257.82669489 149.3125 261.78710938 C149.4059469 284.0169631 147.6578638 305.88160985 143.25 327.6875 C142.99250977 328.9780127 142.73501953 330.26852539 142.46972656 331.59814453 C137.03212293 358.29542206 127.95517657 384.00683698 115 408 C114.65114746 408.65758301 114.30229492 409.31516602 113.94287109 409.99267578 C104.06971035 428.53754843 91.42760445 444.76309087 77 460 C76.1234375 460.93070313 75.246875 461.86140625 74.34375 462.8203125 C67.93854146 469.43274837 61.12239654 475.16478866 53.76318359 480.67675781 C52.08730314 481.93448034 50.42850494 483.2123063 48.76953125 484.4921875 C19.97240169 506.28554928 -14.92698027 518.17365934 -50 525 C-51.12535156 525.22429688 -52.25070312 525.44859375 -53.41015625 525.6796875 C-71.24778981 528.94113949 -89.20714978 529.34681604 -107.28808594 529.31567383 C-111.09860097 529.31252184 -114.9083306 529.3360399 -118.71875 529.36132812 C-166.32480514 529.48491781 -214.43542599 519.87079161 -256 496 C-256.69673828 495.60200195 -257.39347656 495.20400391 -258.11132812 494.79394531 C-311.62611541 463.82638357 -346.32157872 408.69647494 -362 350 C-376.30435019 296.06027184 -376.37746449 237.76775674 -367 183 C-366.84225098 182.05382812 -366.68450195 181.10765625 -366.52197266 180.1328125 C-358.25136189 132.2746876 -336.53951757 87.10176584 -303 52 C-302.16597656 51.12472656 -301.33195312 50.24945313 -300.47265625 49.34765625 C-269.50237709 17.59455803 -228.27706668 -1.47319387 -185.4375 -10.875 C-184.44632172 -11.09342056 -184.44632172 -11.09342056 -183.43511963 -11.31625366 C-124.41189651 -24.17750615 -56.81802724 -21.30077685 0 0 Z M-229 114 C-229.58563721 114.55703613 -230.17127441 115.11407227 -230.7746582 115.68798828 C-259.17664187 143.35694247 -273.61661898 183.84388947 -277.72216797 222.48486328 C-277.95122837 224.55848388 -278.22865251 226.62670236 -278.51904297 228.69262695 C-279.10002795 233.33011885 -279.17889674 237.92828239 -279.203125 242.59765625 C-279.21018463 243.50089127 -279.21724426 244.40412628 -279.22451782 245.33473206 C-279.49023484 272.81039936 -279.49023484 272.81039936 -276 300 C-275.80664062 301.0101416 -275.61328125 302.0202832 -275.4140625 303.06103516 C-268.55173401 338.19340365 -254.84967908 368.20963906 -230 394 C-229.11441406 394.96292969 -229.11441406 394.96292969 -228.2109375 395.9453125 C-222.77572602 401.70181727 -216.34622121 406.31067398 -210 411 C-209.28328125 411.5465625 -208.5665625 412.093125 -207.828125 412.65625 C-188.46873182 426.59501309 -163.84163002 433.15719265 -140.47094727 435.72216797 C-138.37419293 435.95792594 -136.28204799 436.23412602 -134.19140625 436.51904297 C-127.3080973 437.38101405 -120.36429334 437.2437891 -113.4375 437.25 C-112.66021545 437.25100708 -111.88293091 437.25201416 -111.08209229 437.25305176 C-97.86818251 437.24150381 -85.0117164 436.45607942 -72 434 C-71.23107422 433.85546387 -70.46214844 433.71092773 -69.66992188 433.56201172 C-38.78518183 427.50447039 -10.43418188 412.24043316 11 389 C11 388.34 11 387.68 11 387 C11.66 387 12.32 387 13 387 C22.63478251 376.62659091 30.06124601 363.77603571 36 351 C36.3098584 350.33887207 36.6197168 349.67774414 36.93896484 348.99658203 C50.48979155 319.53418258 55.23528529 287.57697343 55.1875 255.375 C55.18722809 254.67823151 55.18695618 253.98146301 55.18667603 253.26358032 C55.16749056 242.51404226 54.77149807 231.90216932 53.30761719 221.24169922 C52.99547572 218.96703017 52.72052058 216.68955507 52.4453125 214.41015625 C50.20664788 197.2332308 45.5357937 179.62820852 38 164 C37.70480469 163.3822168 37.40960938 162.76443359 37.10546875 162.12792969 C22.18568466 131.05495306 1.09566633 105.70421688 -30 90 C-31.06476563 89.44828125 -32.12953125 88.8965625 -33.2265625 88.328125 C-53.39577553 78.42223303 -76.59515623 73.41305815 -99 73 C-99.96534668 72.97953613 -100.93069336 72.95907227 -101.92529297 72.93798828 C-149.31763512 72.07863366 -193.64612089 80.35570949 -229 114 Z " fill="#38CBCB" transform="translate(430,141)"/>
<path d="M0 0 C9.18927124 7.90608472 13.98546431 22.08395012 16.046875 33.6171875 C16.27375 34.8134375 16.500625 36.0096875 16.734375 37.2421875 C18.30321897 54.18570238 15.66752844 73.6197124 4.97265625 87.40625 C-2.33069975 95.79103599 -9.36616482 99.54525509 -19.953125 102.6171875 C-20.54005127 102.79604492 -21.12697754 102.97490234 -21.73168945 103.15917969 C-26.62879997 104.16884881 -31.74340432 103.88380607 -36.73046875 103.91235352 C-38.11110778 103.92376243 -39.49170671 103.94403393 -40.87207031 103.97387695 C-55.62942481 104.29213797 -69.99285096 101.72564093 -81.515625 91.8046875 C-84.83323176 88.26281362 -87.00195134 84.2162368 -89.203125 79.9296875 C-89.53256104 79.29506592 -89.86199707 78.66044434 -90.20141602 78.0065918 C-95.11253946 67.90683064 -96.4470649 57.74467585 -96.328125 46.6171875 C-96.33972656 45.53179688 -96.35132813 44.44640625 -96.36328125 43.328125 C-96.30719729 27.662005 -91.26148109 12.0155819 -80.2578125 0.51953125 C-59.70478014 -16.44542936 -20.98782093 -14.85937722 0 0 Z " fill="#002040" transform="translate(719.953125,553.3828125)"/>
</svg>
